<?xml version="1.0" standalone="no"?>
<!DOCTYPE svg PUBLIC "-//W3C//DTD SVG 20010904//EN"
 "http://www.w3.org/TR/2001/REC-SVG-20010904/DTD/svg10.dtd">
<svg version="1.0" xmlns="http://www.w3.org/2000/svg"
 width="512.000000pt" height="512.000000pt" viewBox="0 0 512.000000 512.000000"
 preserveAspectRatio="xMidYMid meet">
<metadata>
Created by potrace 1.14, written by Peter Selinger 2001-2017
</metadata>
<g transform="translate(0.000000,512.000000) scale(0.100000,-0.100000)"
fill="#000000" stroke="none">
<path d="M3540 4149 c-94 -9 -203 -27 -238 -40 -28 -11 -44 -51 -33 -82 5 -13
33 -39 62 -58 202 -129 338 -297 398 -494 31 -99 32 -152 2 -176 -36 -29 -55
-24 -123 34 -93 78 -148 113 -263 168 -114 55 -253 94 -386 109 -143 16 -159
2 -159 -142 0 -183 -45 -439 -110 -622 -53 -148 -174 -380 -218 -413 -28 -23
-68 -15 -95 17 -92 109 -167 568 -167 1024 0 147 -7 156 -119 156 -198 -1
-435 -103 -692 -297 -59 -45 -114 -83 -121 -84 -49 -6 -78 18 -78 64 0 19 20
68 46 117 108 201 245 372 385 480 155 120 173 147 126 194 -24 24 -101 46
-160 46 -67 0 -376 -57 -599 -111 l-127 -31 -92 -84 c-741 -683 -945 -1690
-519 -2559 296 -605 866 -1067 1554 -1260 263 -73 456 -99 746 -99 290 0 483
26 746 99 688 193 1255 653 1554 1260 292 594 292 1272 0 1870 -114 234 -251
423 -443 616 -97 96 -282 251 -332 276 -58 31 -340 42 -545 22z"/>
</g>
</svg>
