<?xml version="1.0" encoding="utf-8"?>
<!-- Generator: Adobe Illustrator 16.0.0, SVG Export Plug-In . SVG Version: 6.00 Build 0)  -->
<!DOCTYPE svg PUBLIC "-//W3C//DTD SVG 1.1//EN" "http://www.w3.org/Graphics/SVG/1.1/DTD/svg11.dtd">
<svg version="1.1" id="圖層_1" xmlns="http://www.w3.org/2000/svg" xmlns:xlink="http://www.w3.org/1999/xlink" x="0px" y="0px"
	 width="190.336px" height="128.519px" viewBox="0 0 190.336 128.519" enable-background="new 0 0 190.336 128.519"
	 xml:space="preserve">
<path fill-rule="evenodd" clip-rule="evenodd" fill="#004D40" d="M37.773,45.974c-3.758-1.069-7.696-0.905-11.563-0.764
	c-6.698,0.25-13.393,0.672-20.001,1.654c-2.536,0.379-4.85,0.19-5.899-1.958c-0.938-1.917,0.36-3.156,2.438-4.089
	c10.843-4.873,22.563-7.75,34.991-8.971c11.248-1.106,22.45-0.867,33.607,0.744c3.578,0.517,5.569-0.761,5.604-3.59
	c0.075-6.486,0.06-12.974,0.019-19.463C76.942,5.22,78.84,1.818,84.304,0c5.787,0,11.577,0,17.368,0
	c5.438,1.84,7.328,5.243,7.291,9.557c-0.045,5.855-0.038,11.71,0.008,17.565c0.021,3.917,2.415,5.209,7.155,3.693
	c17.154-5.487,34.121-4.132,50.998,0.715c7.171,2.063,13.952,4.747,20.455,7.845c1.8,0.856,3.128,1.91,2.663,3.653
	c-0.458,1.68-1.98,2.521-4.193,2.639c-1.313,0.629-2.596-0.046-3.886-0.063c-11.903-0.138-23.755,0.141-35.464,1.976
	c-2.01,0.316-3.811,0.879-4.275,2.654c-0.487,1.875,0.93,2.952,2.798,3.839c7.613,3.632,14.387,7.968,19.495,13.691
	c4.141,4.644,6.803,9.732,7.936,15.297c0.314,1.562-0.098,2.84-1.867,3.722c-1.988,0.982-3.773,0.497-5.356-0.606
	c-7.036-4.896-14.882-8.741-23.867-11.216c-7.351-2.024-14.904-3.19-22.69-3.498c-3.652-0.146-5.333,1.103-5.288,4.264
	c0.083,5.957-0.585,11.86-1.935,17.706c-2.678,11.57-7.786,22.444-16.424,32.243c-3.461,3.928-6.792,3.807-9.525-0.482
	c-4.317-6.783-5.765-14.148-6.942-21.54c-1.504-9.436-1.924-18.917-1.864-28.417c0.022-3.308-1.38-4.365-5.719-4.494
	c-9.932-0.291-18.873,2.265-27.479,5.694c-7.354,2.932-14.144,6.536-20.62,10.49c-0.728,0.442-1.459,0.884-2.209,1.304
	c-1.767,0.99-3.619,1.2-5.416,0.109c-1.822-1.109-1.882-2.556-0.979-4.069c3.754-6.286,8.353-12.169,14.091-17.528
	c5.341-4.994,11.506-9.29,18.414-12.972c1.759-0.938,3.368-1.966,3.012-3.816c-0.383-1.978-2.464-2.518-4.613-3.038
	C42.888,46.313,40.368,46,37.773,45.974z"/>
</svg>
